Exact Audio Copy V0.99 prebeta 1 from 25. May 2007

EAC 抓取日志文件从5. 十一月 2010, 20:11

成方圆 / 20世纪中华歌坛名人百集珍藏版

使用驱动器  ：BENQ    DVD-ROM 16X   Adapter: 0  ID: 1

读取模式     : 保护
使用精确流   : 是
废除音频缓冲 : 是
使用 C2 指针 : 否

读取偏移校正                   : 738
读取 Lead-In 和 Lead-Out       : 否
用静音填充抓取中丢失偏移的采样 : 是
去除首尾静音块                 : 否
已用接口                       : Win NT 及 2000 本地 Win32 接口

所用输出格式 : 内部 WAV 函数
样本格式     : 44.100 Hz;16 Bit;立体声


被抓轨 CD 的 TOC

     音轨 |   开始   |   长度   | 起始扇区 | 结尾扇区 
    --------------------------------------------------
       1  |  0:00.00 |  5:02.72 |       0  |   22721  
       2  |  5:02.72 |  5:15.53 |   22722  |   46399  
       3  | 10:18.50 |  4:41.17 |   46400  |   67491  
       4  | 14:59.67 |  4:37.65 |   67492  |   88331  
       5  | 19:37.57 |  2:25.08 |   88332  |   99214  
       6  | 22:02.65 |  3:46.42 |   99215  |  116206  
       7  | 25:49.32 |  2:20.18 |  116207  |  126724  
       8  | 28:09.50 |  3:37.65 |  126725  |  143064  
       9  | 31:47.40 |  3:10.69 |  143065  |  157383  
      10  | 34:58.34 |  4:51.23 |  157384  |  179231  
      11  | 39:49.57 |  5:17.23 |  179232  |  203029  
      12  | 45:07.05 |  4:15.52 |  203030  |  222206  
      13  | 49:22.57 |  3:43.03 |  222207  |  238934  
      14  | 53:05.60 |  3:38.02 |  238935  |  255286  
      15  | 56:43.62 |  3:42.58 |  255287  |  271994  


范围状态及错误

已选择范围

     文件名 E:\文件夹\20世纪中华歌坛名人百集珍藏版-成方圆[lwg188原创]\成方圆 - 20世纪中华歌坛名人百集珍藏版.wav

     峰值电平 100.0 %
     范围质量 99.9 %
     复制 CRC 020E2406
     复制成功

没有错误发生

状态报告结尾
